<svg width="40" height="92" viewBox="0 0 40 92" fill="none" xmlns="http://www.w3.org/2000/svg">
<path d="M15.7032 38.67C15.8899 38.8633 16.1365 39.0267 16.4432 39.16C16.7565 39.2867 17.0465 39.35 17.3132 39.35C17.5799 39.35 17.7832 39.2833 17.9232 39.15C18.0699 39.0167 18.1432 38.87 18.1432 38.71C18.1432 38.5433 18.0499 38.42 17.8632 38.34C17.6765 38.2533 17.4499 38.1867 17.1832 38.14C16.9232 38.0867 16.6599 38.02 16.3932 37.94C16.1332 37.86 15.9099 37.7233 15.7232 37.53C15.5365 37.3367 15.4432 37.0833 15.4432 36.77C15.4432 36.29 15.6065 35.9067 15.9332 35.62C16.2665 35.3333 16.6632 35.19 17.1232 35.19C17.8232 35.19 18.4165 35.3867 18.9032 35.78L18.5332 36.45C18.3732 36.31 18.1465 36.1833 17.8532 36.07C17.5599 35.9567 17.2832 35.9 17.0232 35.9C16.7632 35.9 16.5532 35.97 16.3932 36.11C16.2332 36.2433 16.1532 36.4367 16.1532 36.69C16.1532 36.8433 16.2465 36.9667 16.4332 37.06C16.6265 37.1467 16.8599 37.22 17.1332 37.28C17.4065 37.3333 17.6799 37.4 17.9532 37.48C18.2332 37.56 18.4665 37.6933 18.6532 37.88C18.8465 38.0667 18.9432 38.3067 18.9432 38.6C18.9432 39.02 18.7832 39.3633 18.4632 39.63C18.1499 39.89 17.7765 40.02 17.3432 40.02C16.9165 40.02 16.5165 39.9533 16.1432 39.82C15.7765 39.68 15.4765 39.5 15.2432 39.28C15.3232 39.1867 15.4765 38.9833 15.7032 38.67ZM19.7327 38.18L19.6727 35.43L20.3127 35.31L20.4527 36.05L20.5427 36.07C20.7227 35.8833 20.866 35.7433 20.9727 35.65C21.086 35.5567 21.2427 35.47 21.4427 35.39C21.6493 35.3033 21.876 35.26 22.1227 35.26C22.656 35.26 23.066 35.44 23.3527 35.8C23.6393 36.1533 23.7827 36.5767 23.7827 37.07C23.7827 37.5633 23.696 38.0233 23.5227 38.45C23.356 38.8767 23.0993 39.2433 22.7527 39.55C22.406 39.85 22.0227 40 21.6027 40C21.1893 40 20.8293 39.87 20.5227 39.61L20.5827 42.22L19.6527 42.29C19.706 40.09 19.7327 38.72 19.7327 38.18ZM20.4627 37.74C20.4627 38.2267 20.5693 38.5967 20.7827 38.85C20.996 39.1033 21.2827 39.23 21.6427 39.23C22.0093 39.23 22.3127 39.0267 22.5527 38.62C22.7927 38.2067 22.9127 37.79 22.9127 37.37C22.9127 36.95 22.826 36.62 22.6527 36.38C22.486 36.1333 22.216 36.01 21.8427 36.01C21.476 36.01 21.1527 36.1767 20.8727 36.51C20.5993 36.8367 20.4627 37.2467 20.4627 37.74ZM25.8855 40.08C25.4521 40.08 25.0955 39.9533 24.8155 39.7C24.5421 39.44 24.4055 39.0933 24.4055 38.66C24.4055 38.2267 24.5621 37.8733 24.8755 37.6C25.1888 37.3267 25.5588 37.19 25.9855 37.19C26.4121 37.19 26.7755 37.3267 27.0755 37.6V37.22C27.0755 36.8067 26.9921 36.4867 26.8255 36.26C26.6655 36.0267 26.4655 35.91 26.2255 35.91C25.9855 35.91 25.7755 35.9667 25.5955 36.08C25.4221 36.1867 25.2388 36.3533 25.0455 36.58L24.5955 36.07C25.0488 35.4833 25.6188 35.19 26.3055 35.19C27.3855 35.19 27.9255 35.8 27.9255 37.02C27.9255 38.24 27.9288 39.2367 27.9355 40.01H27.2255L27.1955 39.57L27.1655 39.55C27.0721 39.6833 26.8988 39.8067 26.6455 39.92C26.3988 40.0267 26.1455 40.08 25.8855 40.08ZM27.0855 38.6C27.0788 38.36 26.9788 38.1733 26.7855 38.04C26.5921 37.9067 26.3588 37.84 26.0855 37.84C25.8121 37.84 25.5988 37.9167 25.4455 38.07C25.2921 38.2233 25.2155 38.4067 25.2155 38.62C25.2155 38.8333 25.2921 39.02 25.4455 39.18C25.6055 39.3333 25.8221 39.41 26.0955 39.41C26.3688 39.41 26.5988 39.3433 26.7855 39.21C26.9788 39.07 27.0788 38.8667 27.0855 38.6ZM32.2461 35.63L31.8161 36.27C31.6961 36.1833 31.5161 36.1067 31.2761 36.04C31.0428 35.9667 30.8361 35.93 30.6561 35.93C30.2028 35.93 29.8728 36.0933 29.6661 36.42C29.4661 36.7467 29.3661 37.1467 29.3661 37.62C29.3661 38.0867 29.4761 38.5033 29.6961 38.87C29.9161 39.2367 30.2028 39.42 30.5561 39.42C30.8228 39.42 31.0961 39.3533 31.3761 39.22C31.6628 39.08 31.8728 38.92 32.0061 38.74L32.4161 39.25C32.2428 39.4633 31.9928 39.65 31.6661 39.81C31.3394 39.97 30.9561 40.05 30.5161 40.05C29.8694 40.05 29.3828 39.84 29.0561 39.42C28.7294 39 28.5661 38.4433 28.5661 37.75C28.5661 37.0567 28.7728 36.4633 29.1861 35.97C29.5994 35.4767 30.1428 35.23 30.8161 35.23C31.2561 35.23 31.7328 35.3633 32.2461 35.63ZM36.5946 37.96L33.6446 37.98C33.6446 38.4067 33.7646 38.75 34.0046 39.01C34.2446 39.2633 34.5146 39.39 34.8146 39.39C35.1146 39.39 35.3713 39.3433 35.5846 39.25C35.8046 39.15 35.9613 39.0533 36.0546 38.96L36.1846 38.81L36.5946 39.35C36.2079 39.8167 35.6079 40.05 34.7946 40.05C34.1413 40.05 33.6446 39.8533 33.3046 39.46C32.9646 39.0667 32.7946 38.5267 32.7946 37.84C32.7946 37.1467 33.0079 36.54 33.4346 36.02C33.8679 35.4933 34.4213 35.23 35.0946 35.23C35.6346 35.23 36.0279 35.4167 36.2746 35.79C36.5279 36.1567 36.6546 36.6367 36.6546 37.23C36.6546 37.4767 36.6346 37.72 36.5946 37.96ZM35.8746 37.39C35.8746 36.91 35.8013 36.5467 35.6546 36.3C35.5146 36.0533 35.2613 35.93 34.8946 35.93C34.5346 35.93 34.2346 36.09 33.9946 36.41C33.7613 36.7233 33.6413 37.0567 33.6346 37.41L35.8746 37.39Z" fill="white"/>
<path d="M22.4706 42.92L36.9506 43.32C37.1106 45.24 37.1906 47.2133 37.1906 49.24C37.1906 51.2133 36.924 53.3467 36.3906 55.64C35.9106 57.9333 35.1373 60.1733 34.0706 62.36C33.004 64.4933 31.484 66.2267 29.5106 67.56C27.5906 68.8933 25.0573 69.56 21.9106 69.56C18.764 69.56 15.8306 68.8933 13.1106 67.56C10.3906 66.1733 8.28396 64.2267 6.79063 61.72C3.85729 56.92 2.39063 50.76 2.39063 43.24C2.39063 36.1467 4.12396 30.0667 7.59063 25C9.29729 22.5467 11.5373 20.6 14.3106 19.16C17.084 17.6667 20.0173 16.92 23.1106 16.92C26.2573 16.92 28.764 17.4533 30.6306 18.52C32.5506 19.5333 34.3906 21.24 36.1506 23.64L30.4706 27.56C28.1773 24.7333 25.6173 23.32 22.7906 23.32C18.524 23.32 15.1906 25.3467 12.7906 29.4C10.444 33.4 9.27063 38.1733 9.27063 43.72C9.27063 47.72 10.1773 51.8533 11.9906 56.12C12.8973 58.2533 14.204 60.0133 15.9106 61.4C17.6173 62.7867 19.644 63.48 21.9906 63.48C24.3906 63.48 26.444 62.2 28.1506 59.64C29.8573 57.0267 30.7106 53.7467 30.7106 49.8C30.7106 49.4267 30.7106 49.0533 30.7106 48.68L22.4706 48.6V42.92Z" fill="white"/>
</svg>
